<svg id="Layer_1" xmlns="http://www.w3.org/2000/svg" viewBox="0 0 40 40" width="2500" height="699"><style>.st0{fill:#430098}</style><title>logo</title><g id="Page-1"><g id="main" transform="translate(-25 -23)"><g id="nav" transform="translate(25 23)"><path id="logo" class="st0" d="M32.3 0H3.6C1.6 0 0 1.6 0 3.6v32.8c0 2 1.6 3.6 3.6 3.6h28.7c2 0 3.6-1.6 3.6-3.6V3.6c0-2-1.6-3.6-3.6-3.6zm1.6 36.4c0 .9-.7 1.6-1.6 1.6H3.6c-.9 0-1.6-.7-1.6-1.6V3.6C2 2.7 2.7 2 3.6 2h28.7c.9 0 1.6.7 1.6 1.6v32.8zM9 34l4.5-4L9 26v8zm16.2-16.2c-.8-.8-2.3-1.8-4.8-1.8-2.7 0-5.5.7-7.5 1.4V6H9v17.3l2.8-1.3s4.6-2.1 8.6-2.1c2 0 2.5 1.1 2.5 2.1v12h4V22c0-.3 0-2.5-1.7-4.2zm-5.3-5.3h4c1.8-2.1 2.7-4.2 3-6.5h-4c-.4 2.3-1.4 4.4-3 6.5zm110.5  "/></g></g></g></svg>