<svg id="icons" xmlns="http://www.w3.org/2000/svg" viewBox="0 0 100 100"><defs><style>.cls-1{fill:#909090;}.cls-2{fill:#00a3e0;}</style></defs><title>rest-dev</title><g id="rest-dev"><path class="cls-1" d="M23.144,32.179h-7a4.455,4.455,0,0,0-4.455,4.455V42.8a3.184,3.184,0,0,1-.933,2.251l-3.6,3.6a1.909,1.909,0,0,0,0,2.7l0,0,3.6,3.6a3.182,3.182,0,0,1,.936,2.25v6.164a4.455,4.455,0,0,0,4.455,4.455h7a1.273,1.273,0,0,0,1.273-1.273V65.275A1.273,1.273,0,0,0,23.144,64h-7a.636.636,0,0,1-.636-.636V57.2a7.007,7.007,0,0,0-2.051-4.952L11.205,50l2.251-2.25A7.007,7.007,0,0,0,15.507,42.8V36.634A.636.636,0,0,1,16.143,36h7a1.273,1.273,0,0,0,1.273-1.273V33.452A1.273,1.273,0,0,0,23.144,32.179Zm69.7,16.469-3.6-3.6a3.189,3.189,0,0,1-.935-2.25V36.634a4.455,4.455,0,0,0-4.455-4.455h-7a1.273,1.273,0,0,0-1.273,1.273v1.273A1.273,1.273,0,0,0,76.856,36h7a.636.636,0,0,1,.636.636V42.8a7,7,0,0,0,2.051,4.952L88.794,50l-2.25,2.25A7,7,0,0,0,84.493,57.2v6.164a.636.636,0,0,1-.636.636h-7a1.273,1.273,0,0,0-1.273,1.273v1.273a1.273,1.273,0,0,0,1.273,1.273h7a4.455,4.455,0,0,0,4.455-4.455V57.2a3.184,3.184,0,0,1,.933-2.251l3.6-3.6a1.909,1.909,0,0,0,.005-2.7Z"/><path class="cls-2" d="M25.971,52.848H23.849V60.58H19.576V39.42h6.816a6.926,6.926,0,0,1,4.963,1.664,6.217,6.217,0,0,1,1.751,4.731q0,4.214-3.066,5.9l3.706,8.661v.2H29.153Zm-2.122-3.56h2.427a2.247,2.247,0,0,0,1.918-.85,3.7,3.7,0,0,0,.64-2.275q0-3.181-2.485-3.182h-2.5Z"/><path class="cls-2" d="M46.97,51.424H40.314v5.61h7.877V60.58H36.042V39.42h12.12v3.561H40.314v5H46.97Z"/><path class="cls-2" d="M59.584,55.028a2.648,2.648,0,0,0-.661-1.954A7.623,7.623,0,0,0,56.518,51.7a11.207,11.207,0,0,1-4.578-2.826,5.683,5.683,0,0,1-1.395-3.83,5.369,5.369,0,0,1,1.9-4.294,7.884,7.884,0,0,1,8.291-.8,5.692,5.692,0,0,1,2.347,2.318,6.945,6.945,0,0,1,.821,3.4H59.642a3.5,3.5,0,0,0-.632-2.259,2.212,2.212,0,0,0-1.824-.778,2.284,2.284,0,0,0-1.744.661,2.491,2.491,0,0,0-.625,1.781,2.192,2.192,0,0,0,.7,1.576,8.025,8.025,0,0,0,2.471,1.461,10.587,10.587,0,0,1,4.5,2.746A6.12,6.12,0,0,1,63.886,55a5.458,5.458,0,0,1-1.759,4.316,6.958,6.958,0,0,1-4.781,1.555,8.234,8.234,0,0,1-3.735-.843,6.318,6.318,0,0,1-2.637-2.412,7,7,0,0,1-.952-3.706h4.287a4.044,4.044,0,0,0,.712,2.66,2.916,2.916,0,0,0,2.325.828Q59.584,57.4,59.584,55.028Z"/><path class="cls-2" d="M80.424,42.981H75.192v17.6H70.905v-17.6H65.76V39.42H80.424Z"/></g></svg>