<?xml version="1.0" encoding="UTF-8" standalone="no"?>
<svg
   xmlns:dc="http://purl.org/dc/elements/1.1/"
   xmlns:cc="http://creativecommons.org/ns#"
   xmlns:rdf="http://www.w3.org/1999/02/22-rdf-syntax-ns#"
   xmlns:svg="http://www.w3.org/2000/svg"
   xmlns="http://www.w3.org/2000/svg"
   xmlns:xlink="http://www.w3.org/1999/xlink"
   xmlns:sodipodi="http://sodipodi.sourceforge.net/DTD/sodipodi-0.dtd"
   xmlns:inkscape="http://www.inkscape.org/namespaces/inkscape"
   version="1.1"
   width="576"
   height="576"
   id="svg20"
   viewBox="0 0 576 576"
   sodipodi:docname="Vetor.cdr">
  <metadata
     id="metadata26">
    <rdf:RDF>
      <cc:Work
         rdf:about="">
        <dc:format>image/svg+xml</dc:format>
        <dc:type
           rdf:resource="http://purl.org/dc/dcmitype/StillImage" />
      </cc:Work>
    </rdf:RDF>
  </metadata>
  <defs
     id="defs24" />
  <sodipodi:namedview
     pagecolor="#ffffff"
     bordercolor="#666666"
     borderopacity="1"
     objecttolerance="10"
     gridtolerance="10"
     guidetolerance="10"
     inkscape:pageopacity="0"
     inkscape:pageshadow="2"
     inkscape:window-width="640"
     inkscape:window-height="480"
     id="namedview22" />
  <path
     d="m 20,20 h 69.3564 v 68.6398 h -69.3564 z"
     style="fill:none"
     id="path2" />
  <path
     d="m 30.7179,265.2418 c -1.7969,-2.7873 -1.1114,-3.3262 -0.75,-4.125 13.75,-24.0001 20.4381,-35.4376 20.4381,-35.4376 1.0561,-2.3757 2.0636,-1.9213 3.0001,-2.0628 28.3751,0 42.5625,0 42.5625,0 1.126,-0.123 2.4923,2.2246 2.6252,2.6252 13.375,23.125 20.0625,34.6875 20.0625,34.6875 0.8509,1.2606 0.4819,2.8418 0,3.5626 -10.3751,18.0003 -15.5625,27.0003 -15.5625,27.0003 0.25,11.3751 0.375,17.0626 0.375,17.0626 0.0641,2.7572 -1.7691,3.8727 -2.6251,3.7499 -34.625,0.125 -51.9376,0.1874 -51.9376,0.1874 -2.2864,0.1477 -3.1059,-2.9137 -3.0001,-3.9373 0,-11.0001 0,-16.5002 0,-16.5002 -10.122,-17.3401 -14.7759,-26.297 -15.1881,-26.8126 z"
     style="fill:none;stroke:#000000;stroke-width:0.5669;stroke-linecap:butt;stroke-linejoin:miter;stroke-dasharray:none"
     id="path10" />
  <path
     d="m 45.9232,292.447 c -0.4402,-6.3607 1.9004,-6.7553 4.6236,-6.9083 27.0423,-0.5219 41.7742,0.0303 42.2343,-0.0468 4.6763,0.1534 3.5563,2.9696 3.7502,4.875 0.25,12.3752 0.375,18.5627 0.375,18.5627 -0.1394,2.715 -2.8757,3.6377 -3.8435,3.3282"
     style="fill:none;stroke:#000000;stroke-width:0.5669;stroke-linecap:butt;stroke-linejoin:miter;stroke-dasharray:none"
     id="path12" />
  <path
     d="m 92.7108,285.4687 c 5.8751,-0.125 8.6952,0.1176 8.8123,0.1876 2.1291,0.9153 1.4882,4.9864 1.571,5.8828"
     style="fill:none;stroke:#000000;stroke-width:0.5669;stroke-linecap:butt;stroke-linejoin:miter;stroke-dasharray:none"
     id="path14" />
  <path
     d="M 49.2123,285.7952 C 41.4621,271.2951 37.5871,264.045 37.5871,264.045 c -1.0854,-1.9522 -1.0032,-1.5392 -0.3753,-2.6722 11.6252,-20.1878 17.4376,-30.2817 17.4376,-30.2817 0.9547,-1.6951 1.6983,-1.3981 2.344,-1.4531 23.5,-0.1561 35.2502,-0.2344 35.2502,-0.2344 1.4233,0.0261 1.9273,0.9851 2.2034,1.4531 11.844,20.3439 17.7659,30.5161 17.7659,30.5161 0.8271,1.3634 0.2463,1.6171 0,2.0624 -8.2503,14.6254 -12.3753,21.9379 -12.3753,21.9379"
     style="fill:none;stroke:#000000;stroke-width:0.5669;stroke-linecap:butt;stroke-linejoin:miter;stroke-dasharray:none"
     id="path16" />
  <path
     d="M 75.8373,285.3261 C 102.6978,269.9056 100.4264,233.07 95.2438,223.8253"
     style="fill:none;stroke:#000000;stroke-width:0.5669;stroke-linecap:butt;stroke-linejoin:miter;stroke-dasharray:none"
     id="path18" />
</svg>
